:SAMPLES-PER-SECOND 30
:FRAME-RANGE 1-3358
:FULLY-SPECIFIED
:DEGREES
1889
root  -35.905 38.0834 45.1954 -0.403076 72.3442 -4.00861
RightUpLeg  -25.9171 0.855076 -0.887769
RightLeg  -0.0271741 -6.79127 1.51846
RightFoot  -6.2496 -0.504116 10.3517
RightToes  -1.11029e-010 1.2921e-014 -6.02303e-014
Spine  -5.03174 -4.1486 -1.23022
Spine1  7.80916 -4.18551 0.430496
HEad  2.74147 30.7407 -7.69722
LeftShoulder1  1.44928 -2.92559 -16.8151
LeftArm  34.8213 -17.6128 -49.4296
LeftForeArm  25.6493 -27.2987 -4.49509
LeftHand  -0.0334415 5.10513 3.94809
RightShoulder  1.16269 0.363533 25.5515
RightArm  -31.3862 -6.417 42.5602
RightForeArm  66.1866 -4.91941 0.368755
RightHand  0.013362 -6.22443 -5.72765
LeftUpLeg  2.33675 -1.25047 -9.65027
LeftLeg  16.1631 7.91112 3.91984
LeftFoot  -20.2435 0.565182 5.69141
LeftToes  -1.90334e-010 -8.83595e-011 4.99953e-011
1890
root  -34.7801 37.8382 45.5343 0.665894 73.396 -2.75339
RightUpLeg  -26.4098 1.10612 -0.736773
RightLeg  -0.0357911 -8.90374 1.60281
RightFoot  -7.33371 -0.44174 11.1619
RightToes  -1.11029e-010 1.2921e-014 -6.02303e-014
Spine  -5.12846 -4.40662 -1.48157
Spine1  8.05592 -4.48439 0.600511
HEad  3.14889 30.6294 -7.99984
LeftShoulder1  1.49873 -3.17932 -16.6556
LeftArm  34.8147 -19.2574 -49.1617
LeftForeArm  26.5394 -27.4509 -4.481
LeftHand  -0.0283631 5.27951 3.92244
RightShoulder  1.07848 0.0959786 25.5487
RightArm  -31.2949 -8.23363 42.2525
RightForeArm  65.096 -4.98401 0.512813
RightHand  0.0101651 -6.33951 -5.69112
LeftUpLeg  3.92674 -1.7874 -10.0895
LeftLeg  17.4918 7.5316 3.88298
LeftFoot  -21.5453 0.552937 4.73918
LeftToes  -1.90334e-010 -8.83595e-011 4.99953e-011
1891
root  -33.5781 37.6094 45.8536 1.08032 74.6736 -2.20636
RightUpLeg  -27.2302 0.244626 -0.139727
RightLeg  4.12381 -7.56453 0.991396
RightFoot  -6.9041 -0.436853 10.0359
RightToes  -1.11029e-010 1.2921e-014 -6.02303e-014
Spine  -5.32245 -4.80494 -1.33932
Spine1  8.44568 -5.01917 0.808736
HEad  3.74723 30.5804 -8.61336
LeftShoulder1  1.52548 -3.36185 -16.404
LeftArm  34.5786 -20.4883 -49.1762
LeftForeArm  26.5898 -27.377 -4.46197
LeftHand  -0.0254832 5.37785 3.96025
RightShoulder  0.979179 -0.225259 25.6074
RightArm  -31.4563 -9.65374 41.8966
RightForeArm  64.3828 -5.00452 0.481507
RightHand  0.00852468 -6.2252 -5.54093
LeftUpLeg  5.34606 -2.55872 -10.1861
LeftLeg  19.3454 6.98594 3.62004
LeftFoot  -22.4376 0.476124 3.51198
LeftToes  -1.90334e-010 -8.83595e-011 4.99953e-011
1892
root  -32.3707 37.5639 46.1427 -0.849731 76.4926 -4.14612
RightUpLeg  -27.6655 -0.466889 0.852525
RightLeg  8.61633 -6.11276 -0.0520359
RightFoot  -4.46848 -0.419055 6.46378
RightToes  -1.11029e-010 1.2921e-014 -6.02303e-014
Spine  -5.51723 -5.30022 -0.507262
Spine1  9.05778 -5.93895 1.68756
HEad  4.38569 30.565 -9.42989
LeftShoulder1  1.54918 -3.50069 -16.2753
LeftArm  34.1152 -21.3335 -49.227
LeftForeArm  27.5523 -27.5955 -4.45876
LeftHand  -0.0258398 5.32894 3.76495
RightShoulder  0.834019 -0.692769 25.6941
RightArm  -31.4565 -11.2665 41.4026
RightForeArm  63.5924 -5.04406 0.54727
RightHand  0.00862087 -6.15538 -5.51313
LeftUpLeg  6.67325 -3.47136 -9.36602
LeftLeg  20.9919 5.94642 2.90613
LeftFoot  -21.8864 0.317023 2.01064
LeftToes  -1.90334e-010 -8.83595e-011 4.99953e-011
1893
root  -31.1801 37.6657 46.3875 -7.06726 77.919 -10.4212
RightUpLeg  -27.9303 0.924685 1.42366
RightLeg  11.7375 -8.26469 -1.61678
RightFoot  2.49428 -0.717561 6.0488
RightToes  -1.11029e-010 1.2921e-014 -6.02303e-014
Spine  -5.23638 -5.44354 1.78279
Spine1  9.42854 -6.55202 2.52508
HEad  4.76563 30.5457 -10.2581
LeftShoulder1  1.56653 -3.54643 -16.3859
LeftArm  33.9752 -22.1839 -49.6067
LeftForeArm  28.7626 -27.6498 -4.40618
LeftHand  -0.0272804 5.5207 3.8016
RightShoulder  0.699797 -1.15809 26.3256
RightArm  -30.7886 -12.8417 40.1623
RightForeArm  61.8869 -5.1676 0.920595
RightHand  0.0104125 -6.17341 -5.64305
LeftUpLeg  7.09306 -3.32945 -7.39645
LeftLeg  23.9828 3.64794 2.11365
LeftFoot  -19.9219 0.0782881 -0.549546
LeftToes  -1.90334e-010 -8.83595e-011 4.99953e-011
1894
root  -29.9508 37.6103 46.6403 -12.554 77.7174 -16.0285
RightUpLeg  -28.6444 -0.305116 3.21473
RightLeg  16.2794 -5.7628 -1.87505
RightFoot  4.16912 -0.812176 6.16731
RightToes  -1.11029e-010 1.2921e-014 -6.02303e-014
Spine  -4.93908 -5.15279 4.14217
Spine1  9.3422 -6.35999 2.87434
HEad  5.29172 30.7005 -10.7573
LeftShoulder1  1.55676 -3.52348 -16.3136
LeftArm  33.392 -22.5594 -50.3666
LeftForeArm  28.8708 -27.3597 -4.33656
LeftHand  -0.0242705 5.48418 3.93739
RightShoulder  0.742659 -1.04504 26.626
RightArm  -30.9924 -13.6316 39.4468
RightForeArm  61.123 -5.17225 0.793139
RightHand  0.0102431 -6.16275 -6.05527
LeftUpLeg  5.05262 -0.292973 -4.57901
LeftLeg  31.2594 -0.191349 0.228063
LeftFoot  -16.6494 -0.0879937 -4.04929
LeftToes  -1.90334e-010 -8.83595e-011 4.99953e-011
1895
root  -28.8308 37.5923 46.8891 -14.8623 76.6129 -18.399
RightUpLeg  -28.6506 -0.551615 4.56558
RightLeg  19.455 -4.29258 -1.87182
RightFoot  4.02161 -0.678854 5.23329
RightToes  -1.11029e-010 1.2921e-014 -6.02303e-014
Spine  -4.45262 -4.67636 5.68438
Spine1  9.40721 -5.93124 3.32212
HEad  6.2308 31.1978 -10.2389
LeftShoulder1  1.50499 -3.46589 -15.6904
LeftArm  32.5352 -22.6799 -50.6672
LeftForeArm  29.4952 -27.775 -4.39485
LeftHand  -0.0219872 5.52446 4.05707
RightShoulder  0.890693 -0.569489 26.3765
RightArm  -32.3522 -13.2809 40.1292
RightForeArm  62.514 -4.99964 0.0639734
RightHand  0.0115884 -6.08891 -6.33348
LeftUpLeg  1.27021 3.36948 -1.76524
LeftLeg  40.5586 -3.34756 -2.68216
LeftFoot  -9.88459 0.172254 -8.88607
LeftToes  -1.90334e-010 -8.83595e-011 4.99953e-011
1896
root  -27.8301 37.6313 47.1207 -17.4253 75.98 -20.9463
RightUpLeg  -28.1196 0.797292 5.30165
RightLeg  21.821 -4.85373 -2.35627
RightFoot  2.89677 -0.400025 3.35981
RightToes  -1.11029e-010 1.2921e-014 -6.02303e-014
Spine  -3.8827 -4.56355 6.88888
Spine1  9.56748 -5.80128 3.68287
HEad  7.45365 31.636 -8.71705
LeftShoulder1  1.47268 -3.49095 -15.0807
LeftArm  32.4563 -23.3935 -49.9751
LeftForeArm  31.0884 -28.6633 -4.50752
LeftHand  -0.0207245 5.53797 3.99155
RightShoulder  0.957559 -0.354554 26.2895
RightArm  -32.9616 -11.9945 41.2277
RightForeArm  64.1369 -4.88203 -0.286793
RightHand  0.0255225 -6.32037 -6.58828
LeftUpLeg  -3.72848 5.30204 0.724476
LeftLeg  50.3355 -4.27903 -5.07314
LeftFoot  -1.43598 1.26792 -14.4703
LeftToes  -1.90334e-010 -8.83595e-011 4.99953e-011
1897
root  -26.893 37.6221 47.295 -19.0887 75.4286 -22.3869
RightUpLeg  -27.3829 2.04025 5.69455
RightLeg  24.1747 -5.38367 -2.86742
RightFoot  0.73823 -0.292107 2.80698
RightToes  -1.11029e-010 1.2921e-014 -6.02303e-014
Spine  -3.07793 -4.51198 7.78935
Spine1  9.6242 -5.66423 4.02632
HEad  8.75839 31.8154 -7.00527
LeftShoulder1  1.45795 -3.5768 -14.5497
LeftArm  32.132 -24.3053 -49.1299
LeftForeArm  32.1048 -29.181 -4.56964
LeftHand  -0.0163836 5.67694 4.0573
RightShoulder  0.980254 -0.300023 26.4697
RightArm  -32.9973 -10.3204 42.0903
RightForeArm  65.2402 -4.83351 -0.336858
RightHand  0.0349305 -6.44661 -6.86077
LeftUpLeg  -8.97104 6.1115 2.29193
LeftLeg  58.6985 -3.75698 -6.11642
LeftFoot  6.11112 2.59479 -17.0419
LeftToes  -1.90334e-010 -8.83595e-011 4.99953e-011
1898
root  -25.8939 37.7531 47.4386 -18.6945 74.9056 -21.572
RightUpLeg  -25.6547 1.18129 5.82939
RightLeg  25.0652 -4.04513 -2.29603
RightFoot  -1.23591 -0.244691 2.67084
RightToes  -1.11029e-010 1.2921e-014 -6.02303e-014
Spine  -2.2854 -4.40264 7.94099
Spine1  9.21539 -5.50164 4.20718
HEad  10.0961 31.9313 -5.8298
LeftShoulder1  1.43416 -3.5534 -14.2481
LeftArm  31.6051 -25.134 -48.4259
LeftForeArm  32.8349 -29.394 -4.57884
LeftHand  -0.00934142 5.86788 4.3024
RightShoulder  1.02865 -0.164965 26.6277
RightArm  -33.071 -9.12552 42.8407
RightForeArm  65.7909 -4.81299 -0.338907
RightHand  0.0281448 -6.26014 -7.25932
LeftUpLeg  -13.33 6.71439 3.00522
LeftLeg  64.6575 -2.41852 -4.91788
LeftFoot  2.93734 1.8241 -14.6409
LeftToes  -1.90334e-010 -8.83595e-011 4.99953e-011
1899
root  -24.9142 37.9384 47.5429 -16.4417 74.5469 -19.0664
RightUpLeg  -23.8546 1.11808 5.22576
RightLeg  25.2328 -3.56423 -2.0661
RightFoot  -2.82623 -0.204888 2.49244
RightToes  -1.11029e-010 1.2921e-014 -6.02303e-014
Spine  -2.01196 -4.23387 7.56341
Spine1  9.08323 -5.34441 4.33555
HEad  11.2042 32.0896 -5.18077
LeftShoulder1  1.40347 -3.55423 -13.7532
LeftArm  30.9443 -26.0792 -47.8124
LeftForeArm  34.2065 -29.7447 -4.58538
LeftHand  0.0010202 6.10893 4.65162
RightShoulder  1.05388 -0.0827641 26.5796
RightArm  -32.515 -8.40245 43.7727
RightForeArm  64.8594 -4.32492 0.175172
RightHand  0.0169262 -6.03259 -7.56853
LeftUpLeg  -17.4872 6.48943 3.1391
LeftLeg  67.1958 -1.16022 -2.30545
LeftFoot  0.247868 1.28354 -12.6238
LeftToes  -1.90334e-010 -8.83595e-011 4.99953e-011
1900
root  -23.9608 38.1366 47.5927 -14.1849 74.0687 -16.6425
RightUpLeg  -21.9752 1.24157 4.4968
RightLeg  24.9065 -3.18728 -1.85048
RightFoot  -4.13274 -0.189989 2.56851
RightToes  -1.11029e-010 1.2921e-014 -6.02303e-014
Spine  -1.36895 -3.99507 7.39042
Spine1  8.21179 -5.09339 4.44147
HEad  12.2499 32.2312 -4.80287
LeftShoulder1  1.4014 -3.60776 -13.5459
LeftArm  29.884 -26.9225 -46.8569
LeftForeArm  35.0212 -30.1171 -4.62684
LeftHand  0.0105207 6.28138 5.03366
RightShoulder  1.07056 -0.0175066 26.4365
RightArm  -31.4612 -8.00625 44.3131
RightForeArm  62.9693 -1.73835 1.28346
RightHand  -0.00403586 -5.70602 -7.28826
LeftUpLeg  -21.0325 5.69532 3.64847
LeftLeg  66.4975 -0.564267 -0.710686
LeftFoot  -1.0589 1.00086 -11.0288
LeftToes  -1.90334e-010 -8.83595e-011 4.99953e-011
1901
root  -23.029 38.2955 47.5971 -11.4709 73.1716 -13.9771
RightUpLeg  -20.5033 0.948312 3.70087
RightLeg  24.6765 -1.96933 -1.22644
RightFoot  -5.36434 -0.188395 2.90843
RightToes  -1.11029e-010 1.2921e-014 -6.02303e-014
Spine  -1.04135 -3.60887 7.40082
Spine1  7.57763 -4.67129 4.17736
HEad  12.6826 32.5289 -4.81789
LeftShoulder1  1.37926 -3.61489 -13.1702
LeftArm  28.3617 -27.9305 -45.7409
LeftForeArm  36.3966 -30.5998 -4.66447
LeftHand  0.017111 6.35827 5.4106
RightShoulder  1.1447 0.258078 25.9991
RightArm  -31.1789 -7.44804 45.1317
RightForeArm  62.0468 0.426049 1.87811
RightHand  -0.0305687 -5.25228 -7.29228
LeftUpLeg  -23.9441 4.92237 4.57265
LeftLeg  63.3533 0.0771897 0.803083
LeftFoot  -4.1533 0.626614 -9.56489
LeftToes  -1.90334e-010 -8.83595e-011 4.99953e-011
1902
root  -22.1299 38.4213 47.5674 -8.66992 71.8126 -11.3759
RightUpLeg  -19.3837 0.878614 2.84378
RightLeg  24.5329 -0.553499 -0.515329
RightFoot  -6.40606 -0.159086 2.68009
RightToes  -1.11029e-010 1.2921e-014 -6.02303e-014
Spine  -0.760587 -3.09369 7.39071
Spine1  6.94888 -4.12759 3.84111
HEad  12.593 32.9996 -5.15108
LeftShoulder1  1.33383 -3.5003 -12.8035
LeftArm  26.7909 -29.0466 -44.3264
LeftForeArm  38.3703 -31.3046 -4.72294
LeftHand  0.0343558 6.63916 5.86103
RightShoulder  1.2176 0.533027 25.5958
RightArm  -30.454 -6.51133 45.6144
RightForeArm  61.7083 1.9631 2.50068
RightHand  -0.0344303 -5.19127 -7.66285
LeftUpLeg  -26.0644 3.97741 6.03835
LeftLeg  57.8918 1.20977 2.61505
LeftFoot  -5.91965 0.464529 -9.04943
LeftToes  -1.90334e-010 -8.83595e-011 4.99953e-011
